<svg xmlns="http://www.w3.org/2000/svg" viewBox="0 0 24.9 17.826" height="67.372" width="94.109"><defs><clipPath id="a" clipPathUnits="userSpaceOnUse"><path d="M0 581.1h382.68V0H0z"/></clipPath></defs><g clip-path="url(#a)" transform="matrix(.35278 0 0 -.35278 -26.036 182.324)"><path d="M121.772 516.823l-8.785-7.855 14.505-16.852-11.392-9.802-14.317 16.636-9.109-8.143 15.076-16.616s2.851-3.432 7.375-3.809c4.862-.405 8.35 2.756 8.35 2.756l20.908 18.641z" fill="#80cc28"/><path d="M96.415 466.294l8.784 7.855L90.695 491l11.39 9.803 14.318-16.637 9.108 8.144-15.075 16.615s-2.852 3.432-7.375 3.809c-4.863.405-8.349-2.755-8.349-2.755l-20.91-18.641z" fill="#1d6434"/></g></svg>